<?xml version="1.0" encoding="utf-8"?>
<!-- Generator: Adobe Illustrator 25.2.1, SVG Export Plug-In . SVG Version: 6.00 Build 0)  -->
<svg version="1.1" id="Layer_1" xmlns="http://www.w3.org/2000/svg" xmlns:xlink="http://www.w3.org/1999/xlink" x="0px" y="0px"
	 viewBox="0 0 512.3 66.9" style="enable-background:new 0 0 512.3 66.9;" xml:space="preserve">
<style type="text/css">
	.st0{fill:#FFFFFF;}
</style>
<g>
	<path class="st0" d="M68.9,0v66.3h-6.7V13.3L36.1,57.9h-3.3L6.7,13.5v52.8H0V0h5.8l28.8,49.2L63.1,0H68.9z"/>
	<path class="st0" d="M132.1,48.6h-37l-8,17.7h-7.3L110.2,0h6.9l30.3,66.3H140L132.1,48.6z M129.5,42.9L113.6,7.3L97.7,42.9H129.5z"
		/>
	<path class="st0" d="M148.6,57.4l4.2-4.7c3.6,5.3,8.4,8.1,14.3,8.1c8.1,0,12.3-4.8,12.3-14.6V6.1h-24.3V0h31.2v46
		c0,14-6.6,20.9-19.3,20.9C159.5,66.9,152.6,63.5,148.6,57.4z"/>
	<path class="st0" d="M207.3,0h7v66.3h-7V0z"/>
	<path class="st0" d="M230.5,0h32.7c22.2,0,37.4,12.6,37.4,33.2s-15.3,33.2-37.4,33.2h-32.7V0z M262.3,48.9
		c9.4,0,15.8-5.6,15.8-15.7s-6.4-15.7-15.8-15.7h-9.4v31.5H262.3z"/>
	<path class="st0" d="M353,54.8h-25.2l-4.5,11.6h-22.7l29-66.3h22l29,66.3h-23.1L353,54.8z M346.9,38.7L340.4,22L334,38.7H346.9z"/>
	<path class="st0" d="M395.3,17.3h-19.4V0h61.2v17.3h-19.4v49h-22.4V17.3z"/>
	<path class="st0" d="M484.7,54.8h-25.2l-4.5,11.6h-22.7l29-66.3h22l29,66.3h-23.1L484.7,54.8z M478.6,38.7L472.1,22l-6.4,16.7
		H478.6z"/>
</g>
</svg>
